# Blender v2.78 (sub 0) OBJ File: 'bvh_simple1.blend'
# www.blender.org
mtllib bvh_simple1.mtl
o Cube
v -1.000000 -1.000000 -11.000000
v -1.000000 -1.000000 -9.000000
v -1.000000 1.000000 -11.000000
v -1.000000 1.000000 -9.000000
v 1.000000 -1.000000 -11.000000
v 1.000000 -1.000000 -9.000000
v 1.000000 1.000000 -11.000000
v 1.000000 1.000000 -9.000000
vn 0.0000 0.0000 1.0000
vn 0.0000 1.0000 0.0000
vn 0.0000 -1.0000 0.0000
vn -1.0000 0.0000 0.0000
vn 1.0000 0.0000 0.0000
vn 0.0000 0.0000 -1.0000
usemtl Material
s off
f 4//1 6//1 8//1
f 4//1 2//1 6//1
usemtl Material.001
f 4//2 7//2 3//2
f 4//2 8//2 7//2
usemtl Material.002
f 6//3 1//3 5//3
f 6//3 2//3 1//3
usemtl Material.003
f 2//4 3//4 1//4
f 2//4 4//4 3//4
usemtl Material.004
f 8//5 5//5 7//5
f 8//5 6//5 5//5
usemtl Material.005
f 7//6 1//6 3//6
f 7//6 5//6 1//6
