# Blender v2.78 (sub 0) OBJ File: 'bvh_simple1.blend'
# www.blender.org
mtllib bvh_simple3.mtl
o Cube
v -1.414214 -0.707107 -10.707107
v -0.000000 -1.707107 -9.707107
v -1.414213 0.707107 -9.292893
v -0.000000 -0.292893 -8.292893
v 0.000000 0.292893 -11.707107
v 1.414213 -0.707107 -10.707107
v 0.000000 1.707107 -10.292893
v 1.414214 0.707107 -9.292893
vn 0.7071 -0.5000 0.5000
vn -0.0000 0.7071 0.7071
vn 0.0000 -0.7071 -0.7071
vn -0.7071 -0.5000 0.5000
vn 0.7071 0.5000 -0.5000
vn -0.7071 0.5000 -0.5000
usemtl Material
s off
f 8//1 4//1 2//1 6//1
usemtl Material.001
f 3//2 4//2 8//2 7//2
usemtl Material.002
f 5//3 6//3 2//3 1//3
usemtl Material.003
f 1//4 2//4 4//4 3//4
usemtl Material.004
f 7//5 8//5 6//5 5//5
usemtl Material.005
f 3//6 7//6 5//6 1//6
