# Blender v2.78 (sub 0) OBJ File: 'bvh_simple1.blend'
# www.blender.org
mtllib bvh_simple5.mtl
o Cube
v -1.366025 -0.683013 -10.816987
v -0.366025 -1.549038 -9.316987
v -1.366025 1.049038 -9.816987
v -0.366025 0.183013 -8.316987
v 0.366025 -0.183013 -11.683013
v 1.366025 -1.049038 -10.183013
v 0.366025 1.549038 -10.683013
v 1.366025 0.683013 -9.183013
vn 0.5000 -0.4330 0.7500
vn 0.0000 0.8660 0.5000
vn -0.0000 -0.8660 -0.5000
vn -0.8660 -0.2500 0.4330
vn 0.8660 0.2500 -0.4330
vn -0.5000 0.4330 -0.7500
usemtl Material
s off
f 8//1 4//1 2//1 6//1
usemtl Material.001
f 3//2 4//2 8//2 7//2
usemtl Material.002
f 5//3 6//3 2//3 1//3
usemtl Material.003
f 1//4 2//4 4//4 3//4
usemtl Material.004
f 7//5 8//5 6//5 5//5
usemtl Material.005
f 3//6 7//6 5//6 1//6
