# Blender v2.78 (sub 0) OBJ File: 'distance.blend'
# www.blender.org
mtllib distance2.mtl
o Plane
v -9.000000 -9.000000 -32.000000
v -7.000000 -9.000000 -32.000000
v -9.000000 -7.000000 -32.000000
v -7.000000 -7.000000 -32.000000
v -5.000000 -9.000000 -32.000000
v -3.000000 -9.000000 -32.000000
v -5.000000 -7.000000 -32.000000
v -3.000000 -7.000000 -32.000000
v -0.999999 -9.000000 -32.000000
v 1.000001 -9.000000 -32.000000
v -0.999999 -7.000000 -32.000000
v 1.000001 -7.000000 -32.000000
v 3.000002 -9.000000 -32.000000
v 5.000002 -9.000000 -32.000000
v 3.000002 -7.000000 -32.000000
v 5.000002 -7.000000 -32.000000
v 7.000002 -9.000000 -32.000000
v 9.000002 -9.000000 -32.000000
v 7.000002 -7.000000 -32.000000
v 9.000002 -7.000000 -32.000000
v -9.000000 -5.000000 -32.000000
v -7.000000 -5.000000 -32.000000
v -9.000000 -3.000000 -32.000000
v -7.000000 -3.000000 -32.000000
v -5.000000 -5.000000 -32.000000
v -3.000000 -5.000000 -32.000000
v -5.000000 -3.000000 -32.000000
v -3.000000 -3.000000 -32.000000
v -0.999999 -5.000000 -32.000000
v 1.000001 -5.000000 -32.000000
v -0.999999 -3.000000 -32.000000
v 1.000001 -3.000000 -32.000000
v 3.000002 -5.000000 -32.000000
v 5.000002 -5.000000 -32.000000
v 3.000002 -3.000000 -32.000000
v 5.000002 -3.000000 -32.000000
v 7.000002 -5.000000 -32.000000
v 9.000002 -5.000000 -32.000000
v 7.000002 -3.000000 -32.000000
v 9.000002 -3.000000 -32.000000
v -9.000000 -1.000000 -32.000000
v -7.000000 -1.000000 -32.000000
v -9.000000 1.000000 -32.000000
v -7.000000 1.000000 -32.000000
v -5.000000 -1.000000 -32.000000
v -3.000000 -1.000000 -32.000000
v -5.000000 1.000000 -32.000000
v -3.000000 1.000000 -32.000000
v -0.999999 -1.000000 -32.000000
v 1.000001 -1.000000 -32.000000
v -0.999999 1.000000 -32.000000
v 1.000001 1.000000 -32.000000
v 3.000002 -1.000000 -32.000000
v 5.000002 -1.000000 -32.000000
v 3.000002 1.000000 -32.000000
v 5.000002 1.000000 -32.000000
v 7.000002 -1.000000 -32.000000
v 9.000002 -1.000000 -32.000000
v 7.000002 1.000000 -32.000000
v 9.000002 1.000000 -32.000000
v -9.000000 3.000000 -32.000000
v -7.000000 3.000000 -32.000000
v -9.000000 5.000000 -32.000000
v -7.000000 5.000000 -32.000000
v -5.000000 3.000000 -32.000000
v -3.000000 3.000000 -32.000000
v -5.000000 5.000000 -32.000000
v -3.000000 5.000000 -32.000000
v -0.999999 3.000000 -32.000000
v 1.000001 3.000000 -32.000000
v -0.999999 5.000000 -32.000000
v 1.000001 5.000000 -32.000000
v 3.000002 3.000000 -32.000000
v 5.000002 3.000000 -32.000000
v 3.000002 5.000000 -32.000000
v 5.000002 5.000000 -32.000000
v 7.000002 3.000000 -32.000000
v 9.000002 3.000000 -32.000000
v 7.000002 5.000000 -32.000000
v 9.000002 5.000000 -32.000000
v -9.000000 7.000000 -32.000000
v -7.000000 7.000000 -32.000000
v -9.000000 9.000000 -32.000000
v -7.000000 9.000000 -32.000000
v -5.000000 7.000000 -32.000000
v -3.000000 7.000000 -32.000000
v -5.000000 9.000000 -32.000000
v -3.000000 9.000000 -32.000000
v -0.999999 7.000000 -32.000000
v 1.000001 7.000000 -32.000000
v -0.999999 9.000000 -32.000000
v 1.000001 9.000000 -32.000000
v 3.000002 7.000000 -32.000000
v 5.000002 7.000000 -32.000000
v 3.000002 9.000000 -32.000000
v 5.000002 9.000000 -32.000000
v 7.000002 7.000000 -32.000000
v 9.000002 7.000000 -32.000000
v 7.000002 9.000000 -32.000000
v 9.000002 9.000000 -32.000000
vn 0.0000 0.0000 1.0000
usemtl Material.001
s off
f 2//1 3//1 1//1
f 6//1 7//1 5//1
f 10//1 11//1 9//1
f 14//1 15//1 13//1
f 18//1 19//1 17//1
f 22//1 23//1 21//1
f 26//1 27//1 25//1
f 30//1 31//1 29//1
f 34//1 35//1 33//1
f 38//1 39//1 37//1
f 42//1 43//1 41//1
f 46//1 47//1 45//1
f 50//1 51//1 49//1
f 54//1 55//1 53//1
f 58//1 59//1 57//1
f 62//1 63//1 61//1
f 66//1 67//1 65//1
f 70//1 71//1 69//1
f 74//1 75//1 73//1
f 78//1 79//1 77//1
f 82//1 83//1 81//1
f 86//1 87//1 85//1
f 90//1 91//1 89//1
f 94//1 95//1 93//1
f 98//1 99//1 97//1
f 2//1 4//1 3//1
f 6//1 8//1 7//1
f 10//1 12//1 11//1
f 14//1 16//1 15//1
f 18//1 20//1 19//1
f 22//1 24//1 23//1
f 26//1 28//1 27//1
f 30//1 32//1 31//1
f 34//1 36//1 35//1
f 38//1 40//1 39//1
f 42//1 44//1 43//1
f 46//1 48//1 47//1
f 50//1 52//1 51//1
f 54//1 56//1 55//1
f 58//1 60//1 59//1
f 62//1 64//1 63//1
f 66//1 68//1 67//1
f 70//1 72//1 71//1
f 74//1 76//1 75//1
f 78//1 80//1 79//1
f 82//1 84//1 83//1
f 86//1 88//1 87//1
f 90//1 92//1 91//1
f 94//1 96//1 95//1
f 98//1 100//1 99//1
