# Blender v2.78 (sub 0) OBJ File: ''
# www.blender.org
mtllib oneplane3.mtl
o Plane.001
v 1.000000 -1.000000 -10.000000
v 3.000000 -1.000000 -10.000000
v 1.000000 1.000000 -10.000000
v 3.000000 1.000000 -10.000000
vn 0.0000 0.0000 1.0000
usemtl Material.001
s off
f 2//1 3//1 1//1
f 2//1 4//1 3//1
o Plane
v -3.000000 -1.000000 -10.000000
v -1.000000 -1.000000 -10.000000
v -3.000000 1.000000 -10.000000
v -1.000000 1.000000 -10.000000
vn 0.0000 0.0000 1.0000
usemtl Material
s off
f 6//2 7//2 5//2
f 6//2 8//2 7//2
