# Blender v2.78 (sub 0) OBJ File: ''
# www.blender.org
mtllib sanity1.mtl
o Cube
v 1.707107 0.000002 -10.723645
v -0.707107 1.414215 -11.137858
v 0.707107 1.414215 -9.723644
v -1.707107 0.000002 -10.137858
v 0.707106 -1.414213 -9.723646
v -0.292893 0.000001 -8.723645
v 0.292893 0.000002 -12.137858
v -0.707107 -1.414212 -11.137858
vn 0.5000 0.7071 -0.5000
vn -0.5000 -0.7071 0.5000
vn 0.7071 -0.0000 0.7071
vn 0.5000 -0.7071 -0.5000
vn -0.7071 0.0000 -0.7071
vn -0.5000 0.7071 0.5000
usemtl Material
s 1
f 1//1 2//1 3//1
f 4//2 5//2 6//2
f 6//3 1//3 3//3
f 5//4 7//4 1//4
f 7//5 4//5 2//5
f 3//6 4//6 6//6
f 1//1 7//1 2//1
f 4//2 8//2 5//2
f 6//3 5//3 1//3
f 5//4 8//4 7//4
f 7//5 8//5 4//5
f 3//6 2//6 4//6
